# Blender 3.5.0
# www.blender.org
mtllib wheel.mtl
o wheel
v -0.001915 0.317563 0.000000
v -0.001915 0.293390 0.121526
v -0.001915 0.224551 0.224551
v -0.001915 0.121526 0.293390
v -0.001915 -0.000000 0.317563
v -0.001915 -0.121526 0.293390
v -0.001915 -0.224551 0.224551
v -0.001915 -0.293390 0.121526
v -0.001915 -0.317563 0.000000
v -0.001915 -0.293390 -0.121526
v -0.001915 -0.224551 -0.224551
v -0.001915 -0.121526 -0.293390
v -0.001915 -0.000000 -0.317563
v -0.001915 0.121526 -0.293390
v -0.001915 0.224551 -0.224551
v -0.001915 0.293390 -0.121526
v 0.104953 0.238709 0.000000
v 0.104953 0.220539 0.091350
v 0.104953 0.168793 0.168793
v 0.104953 0.091350 0.220539
v 0.104953 -0.000000 0.238709
v 0.104953 -0.091350 0.220539
v 0.104953 -0.168793 0.168793
v 0.104953 -0.220539 0.091350
v 0.104953 -0.238709 0.000000
v 0.104953 -0.220539 -0.091350
v 0.104953 -0.168793 -0.168793
v 0.104953 -0.091350 -0.220539
v 0.104953 -0.000000 -0.238709
v 0.104953 0.091350 -0.220539
v 0.104953 0.168793 -0.168793
v 0.104953 0.220539 -0.091350
v 0.104953 0.293390 0.121526
v 0.104953 0.317563 0.000000
v 0.104953 0.224551 0.224551
v 0.104953 0.121526 0.293390
v 0.104953 -0.000000 0.317563
v 0.104953 -0.121526 0.293390
v 0.104953 -0.224551 0.224551
v 0.104953 -0.293390 0.121526
v 0.104953 -0.317563 0.000000
v 0.104953 -0.293390 -0.121526
v 0.104953 -0.224551 -0.224551
v 0.104953 -0.121526 -0.293390
v 0.104953 -0.000000 -0.317563
v 0.104953 0.121526 -0.293390
v 0.104953 0.224551 -0.224551
v 0.104953 0.293390 -0.121526
v 0.071280 0.086002 -0.000000
v 0.071280 0.079456 0.032912
v 0.071280 0.060813 0.060813
v 0.071280 0.032912 0.079456
v 0.071280 -0.000000 0.086002
v 0.071280 -0.032912 0.079456
v 0.071280 -0.060813 0.060813
v 0.071280 -0.079456 0.032912
v 0.071280 -0.086002 0.000000
v 0.071280 -0.079456 -0.032912
v 0.071280 -0.060813 -0.060813
v 0.071280 -0.032912 -0.079456
v 0.071280 -0.000000 -0.086002
v 0.071280 0.032912 -0.079456
v 0.071280 0.060813 -0.060813
v 0.071280 0.079456 -0.032912
v -0.107971 0.235487 0.000000
v -0.107971 0.217561 0.090117
v -0.107971 0.166514 0.166514
v -0.107971 0.090117 0.217562
v -0.107971 -0.000000 0.235487
v -0.107971 -0.090117 0.217562
v -0.107971 -0.166514 0.166514
v -0.107971 -0.217561 0.090117
v -0.107971 -0.235487 0.000000
v -0.107971 -0.217562 -0.090117
v -0.107971 -0.166514 -0.166514
v -0.107971 -0.090117 -0.217561
v -0.107971 0.000000 -0.235487
v -0.107971 0.090117 -0.217561
v -0.107971 0.166514 -0.166514
v -0.107971 0.217562 -0.090117
v -0.107971 0.293390 0.121526
v -0.107971 0.317563 0.000000
v -0.107971 0.224551 0.224551
v -0.107971 0.121526 0.293390
v -0.107971 -0.000000 0.317563
v -0.107971 -0.121526 0.293390
v -0.107971 -0.224551 0.224551
v -0.107971 -0.293390 0.121526
v -0.107971 -0.317563 0.000000
v -0.107971 -0.293390 -0.121526
v -0.107971 -0.224551 -0.224551
v -0.107971 -0.121526 -0.293390
v -0.107971 0.000000 -0.317563
v -0.107971 0.121526 -0.293390
v -0.107971 0.224551 -0.224551
v -0.107971 0.293390 -0.121526
v -0.067305 0.086359 0.000000
v -0.067305 0.079785 0.033048
v -0.067305 0.061065 0.061065
v -0.067305 0.033048 0.079785
v -0.067305 -0.000000 0.086359
v -0.067305 -0.033048 0.079785
v -0.067305 -0.061065 0.061065
v -0.067305 -0.079785 0.033048
v -0.067305 -0.086359 0.000000
v -0.067305 -0.079785 -0.033048
v -0.067305 -0.061065 -0.061065
v -0.067305 -0.033048 -0.079785
v -0.067305 -0.000000 -0.086359
v -0.067305 0.033048 -0.079785
v -0.067305 0.061065 -0.061065
v -0.067305 0.079786 -0.033048
v 0.071280 0.220539 0.091350
v 0.071280 0.238709 0.000000
v 0.071280 0.168793 0.168793
v 0.071280 0.091350 0.220539
v 0.071280 -0.000000 0.238709
v 0.071280 -0.091350 0.220539
v 0.071280 -0.168793 0.168793
v 0.071280 -0.220539 0.091350
v 0.071280 -0.238709 0.000000
v 0.071280 -0.220539 -0.091350
v 0.071280 -0.168793 -0.168793
v 0.071280 -0.091350 -0.220539
v 0.071280 -0.000000 -0.238709
v 0.071280 0.091350 -0.220539
v 0.071280 0.168793 -0.168793
v 0.071280 0.220539 -0.091350
v -0.067305 0.217561 0.090117
v -0.067305 0.235487 0.000000
v -0.067305 0.166514 0.166514
v -0.067305 0.090117 0.217562
v -0.067305 -0.000000 0.235487
v -0.067305 -0.090117 0.217562
v -0.067305 -0.166514 0.166514
v -0.067305 -0.217561 0.090117
v -0.067305 -0.235487 0.000000
v -0.067305 -0.217562 -0.090117
v -0.067305 -0.166514 -0.166514
v -0.067305 -0.090117 -0.217561
v -0.067305 -0.000000 -0.235487
v -0.067305 0.090117 -0.217561
v -0.067305 0.166514 -0.166514
v -0.067305 0.217562 -0.090117
vn -0.0000 -0.0000 -1.0000
vn -0.0000 -0.3827 -0.9239
vn -0.0000 -1.0000 -0.0000
vn -0.0000 -0.9239 -0.3827
vn 0.2829 -0.7604 -0.5847
vn 0.2829 -0.9262 0.2492
vn -0.0000 -0.0000 1.0000
vn -0.0000 -0.3827 0.9239
vn -0.0000 0.3827 -0.9239
vn -0.0000 -0.7071 0.7071
vn -0.0000 0.7071 -0.7071
vn -0.0000 -0.9239 0.3827
vn -0.0000 0.9239 -0.3827
vn -0.0000 1.0000 -0.0000
vn -0.0000 0.9239 0.3827
vn -0.0000 0.7071 0.7071
vn -0.0000 -0.7071 -0.7071
vn -0.0000 0.3827 0.9239
vn 1.0000 -0.0000 -0.0000
vn 0.4074 -0.8437 0.3495
vn 0.0077 0.9471 0.3208
vn 0.0077 0.9978 0.0660
vn 0.4074 -0.6458 -0.6458
vn 0.4074 0.3495 0.8437
vn 0.0077 0.0660 -0.9978
vn 0.2829 0.2492 0.9262
vn 0.2829 0.5847 -0.7604
vn 0.2829 -0.5847 0.7604
vn 0.4074 0.6458 -0.6458
vn 0.4074 -0.6458 0.6458
vn -0.2685 -0.9562 0.1166
vn -0.2685 -0.9280 0.2582
vn -1.0000 -0.0000 -0.0000
vn 0.0077 0.9978 0.0663
vn 0.0077 0.9472 0.3206
vn -0.2685 -0.7586 -0.5936
vn -0.2685 -0.8388 -0.4737
vn 0.0077 0.6587 0.7524
vn 0.0077 -0.4431 -0.8965
vn -0.2685 0.1166 0.9562
vn 0.0077 0.0663 -0.9978
vn -0.2685 0.2582 0.9280
vn -0.2685 0.5936 -0.7586
vn -0.2685 -0.5936 0.7586
vn -0.2685 0.4737 -0.8388
vn -0.2685 -0.4737 0.8388
vn 0.0077 0.8965 -0.4431
vn 0.0228 0.8313 0.5554
vn 0.0016 -0.6338 -0.7735
vn 0.0016 -0.6350 -0.7725
vn 0.0016 -0.8815 0.4721
vn 0.0016 -0.8823 0.4707
vn -0.0228 -0.9805 0.1950
vn 0.0181 0.1051 -0.9943
vn 0.0228 0.8313 -0.5554
vn 0.0016 -0.9951 -0.0988
vn 0.0016 -0.9953 -0.0972
vn 0.0016 -0.2895 0.9572
vn 0.0016 -0.2911 0.9567
vn 0.0016 0.4707 0.8823
vn 0.0016 0.4721 0.8815
vn -0.0228 0.1950 0.9805
vn 0.0016 -0.7735 0.6338
vn 0.0016 -0.7725 0.6350
vn 0.0181 -0.9943 -0.1051
vn 0.0228 -0.5554 -0.8313
vn 0.0016 -0.0988 0.9951
vn 0.0016 -0.0972 0.9953
vn 0.0016 0.9572 0.2895
vn 0.0016 0.9567 0.2911
vn 0.0016 0.6350 0.7725
vn 0.0016 0.6338 0.7735
vn 0.0016 0.8815 -0.4721
vn 0.0016 0.8823 -0.4707
vn 0.0181 -0.1051 0.9943
vn 0.0181 -0.9588 -0.2834
vn 0.0016 0.9951 0.0988
vn 0.0016 0.9953 0.0972
vn 0.0016 0.2895 -0.9572
vn 0.0016 0.2911 -0.9567
vn 0.0016 0.7735 -0.6338
vn 0.0016 0.7725 -0.6350
vn 0.0016 -0.4721 -0.8815
vn 0.0016 -0.4707 -0.8823
vn 0.0228 0.5554 0.8313
vn 0.0181 -0.2834 0.9588
vn 0.0016 0.0988 -0.9951
vn 0.0016 0.0972 -0.9953
vn 0.0016 -0.9572 -0.2895
vn 0.0016 -0.9567 -0.2911
vt 0.000000 0.000000
vt 0.000000 0.000000
vt 0.000000 0.000000
vt 0.000000 0.000000
vt 0.000000 0.000000
vt 0.000000 0.000000
vt 0.000000 0.000000
vt 0.000000 0.000000
vt 0.000000 0.000000
vt 0.000000 0.000000
vt 0.000000 0.000000
vt 0.000000 0.000000
vt 0.000000 0.000000
vt 0.000000 0.000000
vt 0.000000 0.000000
vt 0.000000 0.000000
vt 0.000000 0.000000
vt 0.000000 0.000000
vt 0.000000 0.000000
vt 0.000000 0.000000
vt 0.000000 0.000000
vt 0.000000 0.000000
vt 0.000000 0.000000
vt 0.000000 0.000000
vt 0.000000 0.000000
vt 0.000000 0.000000
vt 0.000000 0.000000
vt 0.000000 0.000000
vt 0.000000 0.000000
vt 0.000000 0.000000
vt 0.000000 0.000000
vt 0.000000 0.000000
vt 0.000000 0.000000
vt 0.000000 0.000000
vt 0.000000 0.000000
vt 0.000000 0.000000
vt 0.000000 0.000000
vt 0.000000 0.000000
vt 0.000000 0.000000
vt 0.000000 0.000000
vt 0.000000 0.000000
vt 0.000000 0.000000
vt 0.000000 0.000000
vt 0.000000 0.000000
vt 0.000000 0.000000
vt 0.000000 0.000000
vt 0.000000 0.000000
vt 0.000000 0.000000
vt 0.000000 0.000000
vt 0.000000 0.000000
vt 0.000000 0.000000
vt 0.000000 0.000000
vt 0.000000 0.000000
vt 0.000000 0.000000
vt 0.000000 0.000000
vt 0.000000 0.000000
vt 0.000000 0.000000
vt 0.000000 0.000000
vt 0.000000 0.000000
vt 0.000000 0.000000
vt 0.000000 0.000000
vt 0.000000 0.000000
vt 0.000000 0.000000
vt 0.000000 0.000000
vt 0.000000 0.000000
vt 0.000000 0.000000
vt 0.000000 0.000000
vt 0.000000 0.000000
vt 0.000000 0.000000
vt 0.000000 0.000000
vt 0.000000 0.000000
vt 0.000000 0.000000
vt 0.000000 0.000000
vt 0.000000 0.000000
vt 0.000000 0.000000
vt 0.000000 0.000000
vt 0.000000 0.000000
vt 0.000000 0.000000
vt 0.000000 0.000000
vt 0.000000 0.000000
vt 0.000000 0.000000
vt 0.000000 0.000000
vt 0.000000 0.000000
vt 0.000000 0.000000
vt 0.000000 0.000000
vt 0.000000 0.000000
vt 0.000000 0.000000
vt 0.000000 0.000000
vt 0.000000 0.000000
vt 0.000000 0.000000
vt 0.000000 0.000000
vt 0.000000 0.000000
vt 0.000000 0.000000
vt 0.000000 0.000000
vt 0.000000 0.000000
vt 0.000000 0.000000
vt 0.000000 0.000000
vt 0.000000 0.000000
vt 0.000000 0.000000
vt 0.000000 0.000000
vt 0.000000 0.000000
vt 0.000000 0.000000
vt 0.000000 0.000000
vt 0.000000 0.000000
vt 0.000000 0.000000
vt 0.000000 0.000000
vt 0.000000 0.000000
vt 0.000000 0.000000
vt 0.000000 0.000000
vt 0.000000 0.000000
vt 0.000000 0.000000
vt 0.000000 0.000000
vt 0.000000 0.000000
vt 0.000000 0.000000
vt 0.000000 0.000000
vt 0.000000 0.000000
vt 0.000000 0.000000
vt 0.000000 0.000000
vt 0.000000 0.000000
vt 0.000000 0.000000
vt 0.000000 0.000000
vt 0.000000 0.000000
vt 0.000000 0.000000
vt 0.000000 0.000000
vt 0.000000 0.000000
vt 0.000000 0.000000
vt 0.000000 0.000000
vt 0.000000 0.000000
vt 0.000000 0.000000
vt 0.000000 0.000000
vt 0.000000 0.000000
vt 0.000000 0.000000
vt 0.000000 0.000000
vt 0.000000 0.000000
vt 0.000000 0.000000
vt 0.000000 0.000000
vt 0.000000 0.000000
vt 0.000000 0.000000
vt 0.000000 0.000000
vt 0.000000 0.000000
vt 0.000000 0.000000
vt 0.000000 0.000000
vt 0.000000 0.000000
vt 0.000000 0.000000
s 1
usemtl tyre_rubber
f 13/13/1 12/12/2 92/92/2 93/93/1
f 12/12/2 13/13/1 45/45/1 44/44/2
f 5/5/7 6/6/8 38/38/8 37/37/7
f 13/13/1 14/14/9 46/46/9 45/45/1
f 6/6/8 7/7/10 39/39/10 38/38/8
f 14/14/9 15/15/11 47/47/11 46/46/9
f 7/7/10 8/8/12 40/40/12 39/39/10
f 15/15/11 16/16/13 48/48/13 47/47/11
f 8/8/12 9/9/3 41/41/3 40/40/12
f 1/1/14 2/2/15 33/33/15 34/34/14
f 16/16/13 1/1/14 34/34/14 48/48/13
f 9/9/3 10/10/4 42/42/4 41/41/3
f 2/2/15 3/3/16 35/35/16 33/33/15
f 10/10/4 11/11/17 43/43/17 42/42/4
f 3/3/16 4/4/18 36/36/18 35/35/16
f 11/11/17 12/12/2 44/44/2 43/43/17
f 4/4/18 5/5/7 37/37/7 36/36/18
f 18/18/19 17/17/19 34/34/19 33/33/19
f 19/19/19 18/18/19 33/33/19 35/35/19
f 20/20/19 19/19/19 35/35/19 36/36/19
f 21/21/19 20/20/19 36/36/19 37/37/19
f 22/22/19 21/21/19 37/37/19 38/38/19
f 23/23/19 22/22/19 38/38/19 39/39/19
f 24/24/19 23/23/19 39/39/19 40/40/19
f 25/25/19 24/24/19 40/40/19 41/41/19
f 26/26/19 25/25/19 41/41/19 42/42/19
f 27/27/19 26/26/19 42/42/19 43/43/19
f 28/28/19 27/27/19 43/43/19 44/44/19
f 29/29/19 28/28/19 44/44/19 45/45/19
f 30/30/19 29/29/19 45/45/19 46/46/19
f 31/31/19 30/30/19 46/46/19 47/47/19
f 32/32/19 31/31/19 47/47/19 48/48/19
f 17/17/19 32/32/19 48/48/19 34/34/19
f 6/6/8 5/5/7 85/85/7 86/86/8
f 14/14/9 13/13/1 93/93/1 94/94/9
f 7/7/10 6/6/8 86/86/8 87/87/10
f 15/15/11 14/14/9 94/94/9 95/95/11
f 8/8/12 7/7/10 87/87/10 88/88/12
f 16/16/13 15/15/11 95/95/11 96/96/13
f 9/9/3 8/8/12 88/88/12 89/89/3
f 2/2/15 1/1/14 82/82/14 81/81/15
f 1/1/14 16/16/13 96/96/13 82/82/14
f 10/10/4 9/9/3 89/89/3 90/90/4
f 3/3/16 2/2/15 81/81/15 83/83/16
f 11/11/17 10/10/4 90/90/4 91/91/17
f 4/4/18 3/3/16 83/83/16 84/84/18
f 12/12/2 11/11/17 91/91/17 92/92/2
f 5/5/7 4/4/18 84/84/18 85/85/7
f 65/65/33 66/66/33 81/81/33 82/82/33
f 66/66/33 67/67/33 83/83/33 81/81/33
f 67/67/33 68/68/33 84/84/33 83/83/33
f 68/68/33 69/69/33 85/85/33 84/84/33
f 69/69/33 70/70/33 86/86/33 85/85/33
f 70/70/33 71/71/33 87/87/33 86/86/33
f 71/71/33 72/72/33 88/88/33 87/87/33
f 72/72/33 73/73/33 89/89/33 88/88/33
f 73/73/33 74/74/33 90/90/33 89/89/33
f 74/74/33 75/75/33 91/91/33 90/90/33
f 75/75/33 76/76/33 92/92/33 91/91/33
f 76/76/33 77/77/33 93/93/33 92/92/33
f 77/77/33 78/78/33 94/94/33 93/93/33
f 78/78/33 79/79/33 95/95/33 94/94/33
f 79/79/33 80/80/33 96/96/33 95/95/33
f 80/80/33 65/65/33 82/82/33 96/96/33
usemtl tyre_metal
f 17/17/3 18/18/4 113/113/5 114/114/6
f 50/50/19 51/51/19 52/52/19 53/53/19 54/54/19 55/55/19 56/56/19 57/57/19 58/58/19 59/59/19 60/60/19 61/61/19 62/62/19 63/63/19 64/64/19 49/49/19
f 32/32/12 17/17/3 114/114/6 128/128/20
f 25/25/14 26/26/15 122/122/21 121/121/22
f 18/18/4 19/19/17 115/115/23 113/113/5
f 26/26/15 27/27/16 123/123/16 122/122/21
f 19/19/17 20/20/2 116/116/2 115/115/23
f 27/27/16 28/28/18 124/124/24 123/123/16
f 20/20/2 21/21/1 117/117/25 116/116/2
f 28/28/18 29/29/7 125/125/26 124/124/24
f 21/21/1 22/22/9 118/118/27 117/117/25
f 29/29/7 30/30/8 126/126/28 125/125/26
f 22/22/9 23/23/11 119/119/29 118/118/27
f 30/30/8 31/31/10 127/127/30 126/126/28
f 23/23/11 24/24/13 120/120/13 119/119/29
f 31/31/10 32/32/12 128/128/20 127/127/30
f 24/24/13 25/25/14 121/121/22 120/120/13
f 65/65/3 80/80/12 144/144/31 130/130/32
f 98/98/33 97/97/33 112/112/33 111/111/33 110/110/33 109/109/33 108/108/33 107/107/33 106/106/33 105/105/33 104/104/33 103/103/33 102/102/33 101/101/33 100/100/33 99/99/33
f 74/74/15 73/73/14 137/137/34 138/138/35
f 67/67/17 66/66/4 129/129/36 131/131/37
f 75/75/16 74/74/15 138/138/35 139/139/38
f 68/68/2 67/67/17 131/131/37 132/132/39
f 76/76/18 75/75/16 139/139/38 140/140/40
f 69/69/1 68/68/2 132/132/39 133/133/41
f 77/77/7 76/76/18 140/140/40 141/141/42
f 70/70/9 69/69/1 133/133/41 134/134/43
f 78/78/8 77/77/7 141/141/42 142/142/44
f 71/71/11 70/70/9 134/134/43 135/135/45
f 79/79/10 78/78/8 142/142/44 143/143/46
f 72/72/13 71/71/11 135/135/45 136/136/47
f 80/80/12 79/79/10 143/143/46 144/144/31
f 73/73/14 72/72/13 136/136/47 137/137/34
f 66/66/4 65/65/3 130/130/32 129/129/36
f 51/51/19 50/50/19 113/113/5 115/115/23
f 53/53/19 52/52/19 116/116/19 117/117/19
f 55/55/19 54/54/19 118/118/27 119/119/29
f 57/57/19 56/56/19 120/120/19 121/121/19
f 59/59/19 58/58/19 122/122/19 123/123/19
f 61/61/19 60/60/19 124/124/24 125/125/26
f 63/63/19 62/62/19 126/126/28 127/127/30
f 49/49/19 64/64/19 128/128/20 114/114/6
f 98/98/33 99/99/33 131/131/37 129/129/36
f 100/100/33 101/101/33 133/133/33 132/132/33
f 102/102/33 103/103/33 135/135/45 134/134/43
f 104/104/33 105/105/33 137/137/33 136/136/33
f 106/106/33 107/107/33 139/139/33 138/138/33
f 108/108/33 109/109/33 141/141/42 140/140/40
f 110/110/33 111/111/33 143/143/46 142/142/44
f 112/112/33 97/97/33 130/130/32 144/144/31
f 123/123/48 139/139/48 138/138/48 122/122/48
f 121/121/22 122/122/21 138/138/35 137/137/34
f 121/121/1 137/137/1 105/105/49 57/57/50
f 57/57/50 105/105/49 106/106/51 58/58/52
f 138/138/8 122/122/8 58/58/52 106/106/51
f 137/137/53 121/121/53 120/120/53 136/136/53
f 119/119/54 120/120/55 136/136/47 135/135/45
f 119/119/54 135/135/45 103/103/56 55/55/57
f 55/55/57 103/103/56 104/104/58 56/56/59
f 136/136/18 120/120/18 56/56/59 104/104/58
f 118/118/27 54/54/60 102/102/61 134/134/43
f 117/117/25 118/118/27 134/134/43 133/133/41
f 133/133/62 117/117/62 116/116/62 132/132/62
f 117/117/3 133/133/3 101/101/63 53/53/64
f 53/53/64 101/101/63 102/102/61 54/54/60
f 115/115/65 116/116/66 132/132/39 131/131/37
f 115/115/65 131/131/37 99/99/67 51/51/68
f 51/51/68 99/99/67 100/100/69 52/52/70
f 132/132/13 116/116/13 52/52/70 100/100/69
f 114/114/6 113/113/5 129/129/36 130/130/32
f 49/49/71 114/114/6 130/130/32 97/97/72
f 49/49/71 97/97/72 98/98/73 50/50/74
f 113/113/5 50/50/74 98/98/73 129/129/36
f 127/127/75 128/128/76 144/144/31 143/143/46
f 127/127/75 143/143/46 111/111/77 63/63/78
f 63/63/78 111/111/77 112/112/79 64/64/80
f 128/128/76 64/64/80 112/112/79 144/144/31
f 125/125/26 126/126/28 142/142/44 141/141/42
f 125/125/26 141/141/42 109/109/81 61/61/82
f 61/61/82 109/109/81 110/110/83 62/62/84
f 126/126/28 62/62/84 110/110/83 142/142/44
f 123/123/85 124/124/86 140/140/40 139/139/38
f 123/123/11 139/139/11 107/107/87 59/59/88
f 59/59/88 107/107/87 108/108/89 60/60/90
f 124/124/86 60/60/90 108/108/89 140/140/40
f 124/124/33 123/123/33 59/59/33 60/60/33
f 120/120/33 119/119/33 55/55/33 56/56/33
f 116/116/19 52/52/19 51/51/19 115/115/19
f 128/128/33 127/127/33 63/63/33 64/64/33
