# Blender 3.5.1
# www.blender.org
o Plane
v -14.296057 5.359661 15.878238
v -17.504553 3.751456 9.007203
v -8.533585 6.064338 14.820971
v -8.335068 4.461114 7.239272
v -8.434326 5.262726 11.030121
v -12.288572 4.868870 11.143303
v -15.900305 4.555559 12.442720
v -12.387831 5.670482 14.934153
v -12.189314 4.067258 7.352454
v -8.434326 5.262726 11.030121
v -15.900305 4.555559 12.442720
v -12.288572 4.868870 11.143303
v -22.033144 5.024598 19.108923
v -24.014181 3.413151 11.789728
v -19.393082 4.341437 14.108620
v -23.023663 4.218874 15.449326
v -17.887035 5.146488 17.588087
v -20.899128 3.536386 10.629152
v -23.023663 4.218874 15.449326
v -19.393082 4.341437 14.108620
v -31.880600 5.271457 18.571108
v -29.314842 3.664945 11.434731
v -26.852383 4.238988 15.921431
v -30.597721 4.468201 15.002919
v -27.068888 5.044385 19.706591
v -26.635878 3.433590 12.136271
v -30.597721 4.468201 15.002919
v -26.852383 4.238988 15.921431
v -39.728844 5.925575 12.058118
v -33.124290 4.316586 8.332133
v -33.957047 4.815956 13.133603
v -36.426567 5.121080 10.195126
v -36.269405 5.618377 16.138947
v -31.644688 4.013535 10.128259
v -36.426567 5.121080 10.195126
v -33.957047 4.815956 13.133603
v -41.670582 5.959747 2.360997
v -34.115726 4.349911 3.012531
v -37.672791 5.239843 6.545330
v -37.893154 5.154829 2.686764
v -41.403847 6.045708 7.218213
v -33.941734 4.433979 5.872447
v -37.893154 5.154829 2.686764
v -37.672791 5.239843 6.545330
v -37.223515 5.043649 -6.974698
v -32.220684 3.456283 -1.269977
v -36.955238 4.827297 -1.037275
v -34.722099 4.249966 -4.122337
v -40.356842 5.627482 -2.714106
v -33.553635 4.027112 0.639557
v -34.722099 4.249966 -4.122337
v -36.955238 4.827297 -1.037275
v -28.678423 3.541136 -11.219412
v -27.323252 1.961823 -3.752071
v -31.584215 3.523903 -6.251856
v -28.000837 2.751480 -7.485742
v -33.094051 4.314032 -9.733100
v -30.074377 2.733774 -2.770613
v -28.000837 2.751480 -7.485742
v -31.584215 3.523903 -6.251856
v -19.399099 2.043149 -11.224781
v -21.502909 0.603663 -3.904005
v -24.234533 1.993395 -7.951349
v -20.451004 1.323406 -7.564393
v -24.176582 2.784633 -11.745234
v -24.292484 1.202158 -4.157465
v -20.451004 1.323406 -7.564393
v -24.234533 1.993395 -7.951349
v -11.736823 1.021827 -8.347921
v -14.772908 0.054162 -1.281259
v -16.817984 0.859670 -6.305329
v -13.254866 0.537994 -4.814590
v -15.330318 1.453301 -9.834837
v -18.305649 0.266038 -2.775822
v -13.254866 0.537994 -4.814590
v -16.817984 0.859670 -6.305329
v -4.856369 0.447003 -5.802621
v -7.150720 -0.141255 1.578557
v -9.664638 0.310320 -3.372665
v -6.003544 0.152874 -2.112032
v -8.284956 0.695319 -6.974224
v -11.044319 -0.074680 0.228894
v -6.003544 0.152874 -2.112032
v -9.664638 0.310320 -3.372665
v 2.082756 0.129645 -4.253516
v 1.017515 -0.132064 3.420379
v -2.261434 0.052173 -1.111270
v 1.550135 -0.001209 -0.416569
v -1.405162 0.261862 -4.885631
v -3.117705 -0.157516 2.663091
v 1.550135 -0.001209 -0.416569
v -2.261434 0.052173 -1.111270
v 9.207372 0.004753 -3.882888
v 9.357219 0.004753 3.867560
v 5.407543 -0.014526 -0.051674
v 9.282295 0.004753 -0.007664
v 5.605313 0.042700 -3.922150
v 5.209773 -0.071751 3.818802
v 9.282295 0.004753 -0.007664
v 5.407543 -0.014526 -0.051674
vn -0.1030 0.9860 -0.1313
vn -0.0882 0.9924 -0.0862
vn -0.0661 0.9935 -0.0931
vn -0.0631 0.9926 -0.1042
vn -0.1597 0.9722 -0.1713
vn -0.1486 0.9703 -0.1909
vn -0.0525 0.9932 -0.1038
vn -0.0537 0.9929 -0.1060
vn -0.1055 0.9723 -0.2084
vn -0.1168 0.9728 -0.1998
vn -0.1355 0.9750 -0.1762
vn -0.0356 0.9879 -0.1510
vn -0.0511 0.9941 -0.0958
vn -0.0602 0.9942 -0.0895
vn -0.0605 0.9944 -0.0864
vn -0.0609 0.9784 -0.1976
vn -0.1187 0.9773 -0.1755
vn -0.1215 0.9771 -0.1745
vn -0.0617 0.9784 -0.1972
vn 0.1198 0.9859 -0.1164
vn 0.0513 0.9936 -0.1007
vn 0.0204 0.9941 -0.1066
vn 0.0232 0.9953 -0.0945
vn 0.1333 0.9764 -0.1701
vn 0.0391 0.9787 -0.2018
vn 0.0485 0.9786 -0.1999
vn 0.1557 0.9747 -0.1606
vn 0.1595 0.9866 -0.0346
vn 0.1085 0.9930 -0.0463
vn 0.0987 0.9932 -0.0616
vn 0.0986 0.9941 -0.0462
vn 0.2058 0.9764 -0.0653
vn 0.1860 0.9756 -0.1169
vn 0.2088 0.9731 -0.0970
vn 0.2180 0.9748 -0.0480
vn 0.1649 0.9860 -0.0240
vn 0.1091 0.9939 -0.0161
vn 0.1090 0.9938 -0.0196
vn 0.1006 0.9948 -0.0169
vn 0.2153 0.9763 -0.0236
vn 0.2081 0.9774 -0.0373
vn 0.2098 0.9771 -0.0352
vn 0.2193 0.9747 -0.0419
vn 0.2040 0.9785 0.0304
vn 0.1293 0.9915 0.0130
vn 0.1240 0.9923 0.0022
vn 0.1196 0.9927 -0.0165
vn 0.2464 0.9677 0.0542
vn 0.2328 0.9725 0.0040
vn 0.2538 0.9666 -0.0350
vn 0.2868 0.9579 0.0137
vn 0.1770 0.9764 0.1240
vn 0.1217 0.9899 0.0729
vn 0.1266 0.9902 0.0584
vn 0.1386 0.9894 0.0427
vn 0.2160 0.9627 0.1630
vn 0.2414 0.9639 0.1120
vn 0.2865 0.9541 0.0877
vn 0.2564 0.9544 0.1530
vn 0.0673 0.9859 0.1535
vn 0.0717 0.9909 0.1137
vn 0.0871 0.9907 0.1048
vn 0.0979 0.9904 0.0976
vn 0.0997 0.9729 0.2088
vn 0.1679 0.9651 0.2010
vn 0.2002 0.9590 0.2005
vn 0.1068 0.9723 0.2080
vn 0.0086 0.9948 0.1018
vn 0.0175 0.9964 0.0829
vn 0.0253 0.9953 0.0930
vn 0.0138 0.9961 0.0870
vn 0.0303 0.9885 0.1481
vn 0.0496 0.9818 0.1831
vn 0.0281 0.9841 0.1753
vn 0.0045 0.9905 0.1378
vn 0.0036 0.9983 0.0580
vn 0.0111 0.9987 0.0497
vn 0.0119 0.9983 0.0575
vn -0.0007 0.9986 0.0537
vn 0.0214 0.9960 0.0866
vn 0.0240 0.9930 0.1157
vn -0.0013 0.9943 0.1064
vn -0.0025 0.9968 0.0793
vn -0.0005 0.9997 0.0234
vn 0.0082 0.9997 0.0235
vn 0.0091 0.9995 0.0297
vn -0.0019 0.9996 0.0280
vn 0.0139 0.9992 0.0366
vn 0.0185 0.9980 0.0602
vn -0.0037 0.9985 0.0552
vn -0.0063 0.9994 0.0338
vn -0.0061 1.0000 0.0036
vn 0.0012 1.0000 0.0037
vn 0.0034 1.0000 0.0081
vn -0.0051 1.0000 0.0078
vn 0.0024 1.0000 0.0074
vn 0.0068 0.9998 0.0164
vn -0.0101 0.9998 0.0154
vn -0.0120 0.9999 0.0072
vt 0.625000 0.500000
vt 0.875000 0.500000
vt 0.625000 0.750000
vt 0.875000 0.750000
vt 0.875000 0.500000
vt 0.875000 0.750000
vt 0.875000 0.625000
vt 0.750000 0.625000
vt 0.625000 0.625000
vt 0.750000 0.500000
vt 0.750000 0.750000
vt 0.875000 0.625000
vt 0.625000 0.625000
vt 0.875000 0.625000
vt 0.750000 0.625000
vt 0.625000 0.500000
vt 0.875000 0.500000
vt 0.625000 0.750000
vt 0.875000 0.750000
vt 0.750000 0.625000
vt 0.625000 0.625000
vt 0.750000 0.500000
vt 0.750000 0.750000
vt 0.625000 0.625000
vt 0.875000 0.625000
vt 0.750000 0.625000
vt 0.625000 0.500000
vt 0.875000 0.500000
vt 0.625000 0.750000
vt 0.875000 0.750000
vt 0.750000 0.625000
vt 0.625000 0.625000
vt 0.750000 0.500000
vt 0.750000 0.750000
vt 0.625000 0.625000
vt 0.875000 0.625000
vt 0.750000 0.625000
vt 0.625000 0.500000
vt 0.875000 0.500000
vt 0.625000 0.750000
vt 0.875000 0.750000
vt 0.750000 0.625000
vt 0.625000 0.625000
vt 0.750000 0.500000
vt 0.750000 0.750000
vt 0.625000 0.625000
vt 0.875000 0.625000
vt 0.750000 0.625000
vt 0.625000 0.500000
vt 0.875000 0.500000
vt 0.625000 0.750000
vt 0.875000 0.750000
vt 0.750000 0.625000
vt 0.625000 0.625000
vt 0.750000 0.500000
vt 0.750000 0.750000
vt 0.625000 0.625000
vt 0.875000 0.625000
vt 0.750000 0.625000
vt 0.625000 0.500000
vt 0.875000 0.500000
vt 0.625000 0.750000
vt 0.875000 0.750000
vt 0.750000 0.625000
vt 0.625000 0.625000
vt 0.750000 0.500000
vt 0.750000 0.750000
vt 0.625000 0.625000
vt 0.875000 0.625000
vt 0.750000 0.625000
vt 0.625000 0.500000
vt 0.875000 0.500000
vt 0.625000 0.750000
vt 0.875000 0.750000
vt 0.750000 0.625000
vt 0.625000 0.625000
vt 0.750000 0.500000
vt 0.750000 0.750000
vt 0.625000 0.625000
vt 0.875000 0.625000
vt 0.750000 0.625000
vt 0.625000 0.500000
vt 0.875000 0.500000
vt 0.625000 0.750000
vt 0.875000 0.750000
vt 0.750000 0.625000
vt 0.625000 0.625000
vt 0.750000 0.500000
vt 0.750000 0.750000
vt 0.625000 0.625000
vt 0.875000 0.625000
vt 0.750000 0.625000
vt 0.625000 0.500000
vt 0.875000 0.500000
vt 0.625000 0.750000
vt 0.875000 0.750000
vt 0.750000 0.625000
vt 0.625000 0.625000
vt 0.750000 0.500000
vt 0.750000 0.750000
vt 0.625000 0.625000
vt 0.875000 0.625000
vt 0.750000 0.625000
vt 0.625000 0.500000
vt 0.875000 0.500000
vt 0.625000 0.750000
vt 0.875000 0.750000
vt 0.750000 0.625000
vt 0.625000 0.625000
vt 0.750000 0.500000
vt 0.750000 0.750000
vt 0.625000 0.625000
vt 0.875000 0.625000
vt 0.750000 0.625000
vt 0.625000 0.500000
vt 0.875000 0.500000
vt 0.625000 0.750000
vt 0.875000 0.750000
vt 0.750000 0.625000
vt 0.625000 0.625000
vt 0.750000 0.500000
vt 0.750000 0.750000
vt 0.625000 0.625000
vt 0.875000 0.625000
vt 0.750000 0.625000
vt 0.625000 0.500000
vt 0.625000 0.750000
vt 0.750000 0.625000
vt 0.625000 0.625000
vt 0.750000 0.500000
vt 0.750000 0.750000
vt 0.625000 0.625000
vt 0.750000 0.625000
s 1
f 11/13/1 7/9/2 6/8/3 12/15/4
f 7/9/2 1/1/5 8/10/6 6/8/3
f 12/15/4 6/8/3 5/7/7 10/12/8
f 6/8/3 8/10/6 3/5/9 5/7/7
f 9/11/10 12/15/4 10/12/8 4/6/9
f 2/3/11 11/13/1 12/15/4 9/11/10
f 19/24/12 16/21/13 15/20/14 20/26/15
f 16/21/13 13/16/16 17/22/17 15/20/14
f 20/26/15 15/20/14 11/14/1
f 15/20/14 17/22/17 1/2/5 11/14/1
f 18/23/18 20/26/15 11/14/1 2/4/11
f 14/18/19 19/24/12 20/26/15 18/23/18
f 27/35/20 24/32/21 23/31/22 28/37/23
f 24/32/21 21/27/24 25/33/25 23/31/22
f 28/37/23 23/31/22 19/25/12
f 23/31/22 25/33/25 13/17/16 19/25/12
f 26/34/26 28/37/23 19/25/12 14/19/19
f 22/29/27 27/35/20 28/37/23 26/34/26
f 35/46/28 32/43/29 31/42/30 36/48/31
f 32/43/29 29/38/32 33/44/33 31/42/30
f 36/48/31 31/42/30 27/36/20
f 31/42/30 33/44/33 21/28/24 27/36/20
f 34/45/34 36/48/31 27/36/20 22/30/27
f 30/40/35 35/46/28 36/48/31 34/45/34
f 43/57/36 40/54/37 39/53/38 44/59/39
f 40/54/37 37/49/40 41/55/41 39/53/38
f 44/59/39 39/53/38 35/47/28
f 39/53/38 41/55/41 29/39/32 35/47/28
f 42/56/42 44/59/39 35/47/28 30/41/35
f 38/51/43 43/57/36 44/59/39 42/56/42
f 51/68/44 48/65/45 47/64/46 52/70/47
f 48/65/45 45/60/48 49/66/49 47/64/46
f 52/70/47 47/64/46 43/58/36
f 47/64/46 49/66/49 37/50/40 43/58/36
f 50/67/50 52/70/47 43/58/36 38/52/43
f 46/62/51 51/68/44 52/70/47 50/67/50
f 59/79/52 56/76/53 55/75/54 60/81/55
f 56/76/53 53/71/56 57/77/57 55/75/54
f 60/81/55 55/75/54 51/69/44
f 55/75/54 57/77/57 45/61/48 51/69/44
f 58/78/58 60/81/55 51/69/44 46/63/51
f 54/73/59 59/79/52 60/81/55 58/78/58
f 67/90/60 64/87/61 63/86/62 68/92/63
f 64/87/61 61/82/64 65/88/65 63/86/62
f 68/92/63 63/86/62 59/80/52
f 63/86/62 65/88/65 53/72/56 59/80/52
f 66/89/66 68/92/63 59/80/52 54/74/59
f 62/84/67 67/90/60 68/92/63 66/89/66
f 75/101/68 72/98/69 71/97/70 76/103/71
f 72/98/69 69/93/72 73/99/73 71/97/70
f 76/103/71 71/97/70 67/91/60
f 71/97/70 73/99/73 61/83/64 67/91/60
f 74/100/74 76/103/71 67/91/60 62/85/67
f 70/95/75 75/101/68 76/103/71 74/100/74
f 83/112/76 80/109/77 79/108/78 84/114/79
f 80/109/77 77/104/80 81/110/81 79/108/78
f 84/114/79 79/108/78 75/102/68
f 79/108/78 81/110/81 69/94/72 75/102/68
f 82/111/82 84/114/79 75/102/68 70/96/75
f 78/106/83 83/112/76 84/114/79 82/111/82
f 91/123/84 88/120/85 87/119/86 92/125/87
f 88/120/85 85/115/88 89/121/89 87/119/86
f 92/125/87 87/119/86 83/113/76
f 87/119/86 89/121/89 77/105/80 83/113/76
f 90/122/90 92/125/87 83/113/76 78/107/83
f 86/117/91 91/123/84 92/125/87 90/122/90
f 99/132/92 96/129/93 95/128/94 100/133/95
f 96/129/93 93/126/96 97/130/97 95/128/94
f 100/133/95 95/128/94 91/124/84
f 95/128/94 97/130/97 85/116/88 91/124/84
f 98/131/98 100/133/95 91/124/84 86/118/91
f 94/127/99 99/132/92 100/133/95 98/131/98
o BezierCurve
v -12.288572 4.868870 11.143303
v -12.415808 4.855868 11.147039
v -12.549766 4.842394 11.159140
v -12.690303 4.828478 11.179303
v -12.837276 4.814147 11.207231
v -12.990543 4.799431 11.242622
v -13.149961 4.784358 11.285179
v -13.315385 4.768958 11.334600
v -13.486672 4.753259 11.390588
v -13.663681 4.737290 11.452841
v -13.846267 4.721080 11.521060
v -14.034286 4.704659 11.594946
v -14.227598 4.688054 11.674199
v -14.426058 4.671294 11.758519
v -14.629522 4.654409 11.847608
v -14.837849 4.637427 11.941164
v -15.050894 4.620378 12.038889
v -15.268515 4.603289 12.140483
v -15.490567 4.586191 12.245646
v -15.716909 4.569111 12.354079
v -15.947398 4.552079 12.465483
v -16.181890 4.535123 12.579556
v -16.420242 4.518272 12.696001
v -16.662310 4.501556 12.814517
v -16.907951 4.485003 12.934804
v -17.157022 4.468642 13.056563
v -17.409382 4.452501 13.179495
v -17.664885 4.436611 13.303299
v -17.923389 4.420999 13.427676
v -18.184752 4.405694 13.552327
v -18.448830 4.390725 13.676952
v -18.715479 4.376121 13.801251
v -18.984556 4.361911 13.924926
v -19.255919 4.348125 14.047675
v -19.529423 4.334789 14.169200
v -19.804928 4.321935 14.289201
v -20.082289 4.309589 14.407377
v -20.361362 4.297782 14.523431
v -20.642006 4.286543 14.637061
v -20.924076 4.275899 14.747969
v -21.207428 4.265880 14.855854
v -21.491920 4.256515 14.960418
v -21.777411 4.247832 15.061359
v -22.063755 4.239861 15.158381
v -22.350811 4.232630 15.251181
v -22.638433 4.226169 15.339460
v -22.926481 4.220505 15.422920
v -23.214809 4.215668 15.501261
v -23.503277 4.211687 15.574182
v -23.791740 4.208590 15.641384
v -24.080055 4.206407 15.702568
v -24.368078 4.205166 15.757434
v -24.655668 4.204897 15.805682
v -24.942680 4.205627 15.847013
v -25.228971 4.207387 15.881127
v -25.514400 4.210204 15.907725
v -25.798822 4.214108 15.926507
v -26.082094 4.219127 15.937173
v -26.364073 4.225291 15.939424
v -26.644615 4.232628 15.932959
v -26.923578 4.241167 15.917480
v -27.200819 4.250937 15.892686
v -27.476194 4.261967 15.858278
v -27.749561 4.274285 15.813957
v -28.020777 4.287923 15.759422
v -28.270441 4.301578 15.702696
v -28.518379 4.315984 15.643296
v -28.764526 4.331106 15.581165
v -29.008821 4.346910 15.516247
v -29.251204 4.363360 15.448482
v -29.491608 4.380421 15.377813
v -29.729973 4.398058 15.304184
v -29.966236 4.416237 15.227536
v -30.200335 4.434921 15.147813
v -30.432205 4.454077 15.064956
v -30.661787 4.473668 14.978908
v -30.889017 4.493660 14.889611
v -31.113832 4.514019 14.797009
v -31.336170 4.534708 14.701043
v -31.555969 4.555692 14.601657
v -31.773167 4.576938 14.498792
v -31.987700 4.598409 14.392391
v -32.199505 4.620070 14.282397
v -32.408524 4.641887 14.168752
v -32.614689 4.663824 14.051398
v -32.817940 4.685847 13.930279
v -33.018215 4.707920 13.805336
v -33.215450 4.730009 13.676513
v -33.409584 4.752077 13.543751
v -33.600555 4.774091 13.406993
v -33.788300 4.796014 13.266182
v -33.972755 4.817813 13.121260
v -34.153862 4.839452 12.972169
v -34.331554 4.860896 12.818852
v -34.505772 4.882109 12.661253
v -34.676449 4.903058 12.499312
v -34.843525 4.923706 12.332973
v -35.006939 4.944018 12.162179
v -35.166626 4.963961 11.986871
v -35.322525 4.983498 11.806992
v -35.474571 5.002594 11.622484
v -35.622704 5.021215 11.433290
v -35.766861 5.039325 11.239354
v -35.906982 5.056890 11.040617
v -36.043003 5.073874 10.837021
v -36.174858 5.090242 10.628510
v -36.302490 5.105960 10.415025
v -36.425831 5.120992 10.196509
v -36.544823 5.135303 9.972905
v -36.659401 5.148857 9.744155
v -36.769505 5.161621 9.510201
v -36.875069 5.173558 9.270988
v -36.976032 5.184635 9.026455
v -37.072334 5.194815 8.776546
v -37.163910 5.204064 8.521205
v -37.250698 5.212347 8.260373
v -37.332638 5.219628 7.993993
v -37.409664 5.225873 7.722006
v -37.481716 5.231046 7.444357
v -37.548729 5.235113 7.160986
v -37.610641 5.238039 6.871838
v -37.667393 5.239787 6.576853
v -37.718918 5.240324 6.275976
v -37.765156 5.239614 5.969147
v -37.806046 5.237622 5.656311
v -37.841522 5.234313 5.337408
v -37.871525 5.229653 5.012382
v -37.895988 5.223605 4.681175
v -37.914871 5.216138 4.343727
v -37.929142 5.203728 3.890984
v -37.929031 5.188561 3.448095
v -37.914841 5.170705 3.014985
v -37.886868 5.150225 2.591578
v -37.845417 5.127189 2.177798
v -37.790787 5.101663 1.773571
v -37.723278 5.073713 1.378822
v -37.643196 5.043407 0.993474
v -37.550838 5.010812 0.617454
v -37.446507 4.975993 0.250684
v -37.330502 4.939018 -0.106910
v -37.203125 4.899953 -0.455403
v -37.064678 4.858866 -0.794870
v -36.915459 4.815822 -1.125388
v -36.755772 4.770889 -1.447030
v -36.585918 4.724133 -1.759874
v -36.406197 4.675620 -2.063993
v -36.216911 4.625418 -2.359464
v -36.018360 4.573594 -2.646361
v -35.810844 4.520213 -2.924760
v -35.594666 4.465343 -3.194736
v -35.370129 4.409051 -3.456365
v -35.137531 4.351403 -3.709721
v -34.897171 4.292466 -3.954881
v -34.649353 4.232306 -4.191919
v -34.394379 4.170991 -4.420911
v -34.132549 4.108586 -4.641932
v -33.864162 4.045159 -4.855057
v -33.589523 3.980777 -5.060362
v -33.308929 3.915505 -5.257922
v -33.022682 3.849412 -5.447812
v -32.731087 3.782562 -5.630108
v -32.434441 3.715024 -5.804885
v -32.133045 3.646864 -5.972219
v -31.827202 3.578149 -6.132184
v -31.517212 3.508945 -6.284856
v -31.203375 3.439319 -6.430310
v -30.885994 3.369337 -6.568622
v -30.565369 3.299067 -6.699867
v -30.241800 3.228575 -6.824120
v -29.915590 3.157928 -6.941456
v -29.587040 3.087193 -7.051951
v -29.256451 3.016436 -7.155681
v -28.924122 2.945724 -7.252720
v -28.590357 2.875123 -7.343144
v -28.255455 2.804701 -7.427028
v -27.919718 2.734524 -7.504447
v -27.583447 2.664658 -7.575478
v -27.246941 2.595171 -7.640194
v -26.910503 2.526130 -7.698671
v -26.574434 2.457600 -7.750986
v -26.239035 2.389649 -7.797212
v -25.904606 2.322343 -7.837426
v -25.571449 2.255749 -7.871702
v -25.239864 2.189934 -7.900116
v -24.910154 2.124964 -7.922744
v -24.582619 2.060906 -7.939661
v -24.257559 1.997828 -7.950941
v -23.935276 1.935794 -7.956660
v -23.616072 1.874874 -7.956894
v -23.300247 1.815132 -7.951718
v -22.988102 1.756635 -7.941207
v -22.679937 1.699451 -7.925437
v -22.376064 1.643646 -7.904479
v -22.082767 1.590843 -7.876535
v -21.785065 1.538783 -7.838338
v -21.482878 1.487471 -7.790237
v -21.176125 1.436913 -7.732582
v -20.864727 1.387115 -7.665722
v -20.548603 1.338083 -7.590006
v -20.227674 1.289822 -7.505784
v -19.901859 1.242337 -7.413405
v -19.571079 1.195635 -7.313218
v -19.235252 1.149722 -7.205573
v -18.894300 1.104603 -7.090818
v -18.548143 1.060283 -6.969304
v -18.196699 1.016770 -6.841380
v -17.839890 0.974067 -6.707394
v -17.477633 0.932182 -6.567696
v -17.109848 0.891119 -6.422636
v -16.736458 0.850885 -6.272563
v -16.357380 0.811485 -6.117825
v -15.972536 0.772925 -5.958773
v -15.581845 0.735211 -5.795756
v -15.185227 0.698348 -5.629123
v -14.782601 0.662342 -5.459223
v -14.373888 0.627199 -5.286406
v -13.959007 0.592925 -5.111021
v -13.537879 0.559525 -4.933417
v -13.110423 0.527005 -4.753944
v -12.676559 0.495372 -4.572951
v -12.236207 0.464629 -4.390787
v -11.789287 0.434784 -4.207802
v -11.335718 0.405842 -4.024344
v -10.875422 0.377808 -3.840764
v -10.408316 0.350689 -3.657411
v -9.934321 0.324490 -3.474633
v -9.453359 0.299218 -3.292780
v -8.965347 0.274876 -3.112202
v -8.470206 0.251472 -2.933247
v -7.967856 0.229012 -2.756266
v -7.458217 0.207500 -2.581607
v -6.941208 0.186942 -2.409620
v -6.416750 0.167345 -2.240654
v -5.884763 0.148714 -2.075058
v -5.345165 0.131055 -1.913182
v -4.797878 0.114373 -1.755375
v -4.242820 0.098674 -1.601986
v -3.679913 0.083965 -1.453364
v -3.109075 0.070250 -1.309860
v -2.530227 0.057535 -1.171822
v -1.943288 0.045827 -1.039600
v -1.348179 0.035130 -0.913542
v -0.744819 0.025451 -0.793999
v -0.133128 0.016795 -0.681319
v 0.486973 0.009169 -0.575852
v 1.115566 0.002577 -0.477947
v 1.752730 -0.002974 -0.387954
v 2.398546 -0.007480 -0.306221
v 3.053092 -0.010933 -0.233099
v 3.716451 -0.013328 -0.168936
v 4.388701 -0.014660 -0.114082
v 5.069923 -0.014923 -0.068885
v 5.760197 -0.014111 -0.033696
v 6.459603 -0.012218 -0.008864
v 7.168221 -0.009239 0.005262
v 7.886131 -0.005168 0.008333
v 8.613412 0.000000 0.000000
l 101 102
l 102 103
l 103 104
l 104 105
l 105 106
l 106 107
l 107 108
l 108 109
l 109 110
l 110 111
l 111 112
l 112 113
l 113 114
l 114 115
l 115 116
l 116 117
l 117 118
l 118 119
l 119 120
l 120 121
l 121 122
l 122 123
l 123 124
l 124 125
l 125 126
l 126 127
l 127 128
l 128 129
l 129 130
l 130 131
l 131 132
l 132 133
l 133 134
l 134 135
l 135 136
l 136 137
l 137 138
l 138 139
l 139 140
l 140 141
l 141 142
l 142 143
l 143 144
l 144 145
l 145 146
l 146 147
l 147 148
l 148 149
l 149 150
l 150 151
l 151 152
l 152 153
l 153 154
l 154 155
l 155 156
l 156 157
l 157 158
l 158 159
l 159 160
l 160 161
l 161 162
l 162 163
l 163 164
l 164 165
l 165 166
l 166 167
l 167 168
l 168 169
l 169 170
l 170 171
l 171 172
l 172 173
l 173 174
l 174 175
l 175 176
l 176 177
l 177 178
l 178 179
l 179 180
l 180 181
l 181 182
l 182 183
l 183 184
l 184 185
l 185 186
l 186 187
l 187 188
l 188 189
l 189 190
l 190 191
l 191 192
l 192 193
l 193 194
l 194 195
l 195 196
l 196 197
l 197 198
l 198 199
l 199 200
l 200 201
l 201 202
l 202 203
l 203 204
l 204 205
l 205 206
l 206 207
l 207 208
l 208 209
l 209 210
l 210 211
l 211 212
l 212 213
l 213 214
l 214 215
l 215 216
l 216 217
l 217 218
l 218 219
l 219 220
l 220 221
l 221 222
l 222 223
l 223 224
l 224 225
l 225 226
l 226 227
l 227 228
l 228 229
l 229 230
l 230 231
l 231 232
l 232 233
l 233 234
l 234 235
l 235 236
l 236 237
l 237 238
l 238 239
l 239 240
l 240 241
l 241 242
l 242 243
l 243 244
l 244 245
l 245 246
l 246 247
l 247 248
l 248 249
l 249 250
l 250 251
l 251 252
l 252 253
l 253 254
l 254 255
l 255 256
l 256 257
l 257 258
l 258 259
l 259 260
l 260 261
l 261 262
l 262 263
l 263 264
l 264 265
l 265 266
l 266 267
l 267 268
l 268 269
l 269 270
l 270 271
l 271 272
l 272 273
l 273 274
l 274 275
l 275 276
l 276 277
l 277 278
l 278 279
l 279 280
l 280 281
l 281 282
l 282 283
l 283 284
l 284 285
l 285 286
l 286 287
l 287 288
l 288 289
l 289 290
l 290 291
l 291 292
l 292 293
l 293 294
l 294 295
l 295 296
l 296 297
l 297 298
l 298 299
l 299 300
l 300 301
l 301 302
l 302 303
l 303 304
l 304 305
l 305 306
l 306 307
l 307 308
l 308 309
l 309 310
l 310 311
l 311 312
l 312 313
l 313 314
l 314 315
l 315 316
l 316 317
l 317 318
l 318 319
l 319 320
l 320 321
l 321 322
l 322 323
l 323 324
l 324 325
l 325 326
l 326 327
l 327 328
l 328 329
l 329 330
l 330 331
l 331 332
l 332 333
l 333 334
l 334 335
l 335 336
l 336 337
l 337 338
l 338 339
l 339 340
l 340 341
l 341 342
l 342 343
l 343 344
l 344 345
l 345 346
l 346 347
l 347 348
l 348 349
l 349 350
l 350 351
l 351 352
l 352 353
l 353 354
l 354 355
l 355 356
l 356 357
o Cube
v 10.654264 -0.188589 0.876753
v 6.654576 -0.183821 0.827061
v 10.652476 -1.688588 0.876753
v 6.652788 -1.683820 0.827061
v 10.676626 -0.188615 -0.923108
v 6.676938 -0.183847 -0.972800
v 10.674838 -1.688614 -0.923108
v 6.675150 -1.683846 -0.972800
vn -0.0124 -0.0000 0.9999
vn -0.0012 -1.0000 -0.0000
vn 0.0124 -0.0000 -0.9999
vn 0.0012 1.0000 -0.0000
vn 0.9999 -0.0012 0.0124
vn -0.9999 0.0012 -0.0124
vt 0.375000 0.000000
vt 0.375000 1.000000
vt 0.125000 0.750000
vt 0.625000 0.000000
vt 0.625000 1.000000
vt 0.875000 0.750000
vt 0.375000 0.250000
vt 0.125000 0.500000
vt 0.625000 0.250000
vt 0.875000 0.500000
vt 0.375000 0.750000
vt 0.625000 0.750000
vt 0.375000 0.500000
vt 0.625000 0.500000
s 0
f 358/134/100 359/137/100 361/142/100 360/140/100
f 360/140/101 361/142/101 365/147/101 364/146/101
f 364/146/102 365/147/102 363/145/102 362/144/102
f 362/144/103 363/145/103 359/138/103 358/135/103
f 360/141/104 364/146/104 362/144/104 358/136/104
f 365/147/105 361/143/105 359/139/105 363/145/105
